<svg width="25" height="25" viewBox="0 0 25 25" fill="none" xmlns="http://www.w3.org/2000/svg">
<path d="M14.2002 11.5822C14.2362 11.9337 14.3073 12.2499 14.3084 12.707C14.3175 16.5741 11.7224 19.2873 7.82008 19.2966C4.09353 19.3054 1.06301 16.3243 1.05409 12.5626C1.04526 8.83605 4.06151 5.80545 7.78807 5.79662C9.61619 5.79228 11.1295 6.45666 12.3275 7.57883L10.5035 9.34097C10.0102 8.84995 9.12992 8.28953 7.79399 8.2927C5.50884 8.29812 3.61491 10.2011 3.62049 12.5565C3.62616 14.9471 5.52909 16.8411 7.81424 16.8356C10.4861 16.8293 11.5011 14.8933 11.6393 13.9086L7.80732 13.9177L7.80182 11.5974L14.2002 11.5822ZM20.7046 11.7777L20.7 9.84413L18.7313 9.8488L18.7359 11.7824L16.7671 11.7871L16.7718 13.7558L18.7406 13.7511L18.7452 15.7199L20.714 15.7152L20.7093 13.7465L22.678 13.7418L22.6734 11.7731L20.7046 11.7777Z" fill="#5C8EE6"/>
</svg>
