<svg width="25" height="25" viewBox="0 0 25 25" fill="none" xmlns="http://www.w3.org/2000/svg">
<path d="M19.1843 9.53295C19.1847 9.70873 19.1851 9.84936 19.1855 10.0251C19.1971 14.9118 15.5189 20.5104 8.7338 20.5265C6.62443 20.5315 4.68943 19.9384 3.06974 18.8876C3.35107 18.9221 3.63241 18.9566 3.94881 18.9558C5.67146 18.9517 7.25207 18.3503 8.51536 17.363C6.89809 17.3316 5.5245 16.2802 5.06397 14.8047C5.31015 14.8393 5.52117 14.874 5.76726 14.8734C6.08367 14.8726 6.43506 14.8015 6.71614 14.7305C5.02782 14.3829 3.75869 12.9094 3.75444 11.1164L3.75436 11.0813C4.24721 11.3613 4.8452 11.5006 5.44294 11.5343C4.42182 10.8687 3.78635 9.74525 3.78334 8.47963C3.78168 7.7765 3.95596 7.14328 4.27111 6.61518C6.10448 8.82569 8.85016 10.2957 11.9092 10.4643C11.8382 10.1832 11.8024 9.90202 11.8017 9.62077C11.7969 7.58172 13.4453 5.92546 15.4843 5.92062C16.539 5.91812 17.4892 6.33774 18.1941 7.07436C19.0023 6.89666 19.8101 6.57834 20.5123 6.15479C20.2331 7.03436 19.6723 7.73882 18.8999 8.19769C19.638 8.12562 20.3758 7.91294 21.0079 7.63019C20.5175 8.36963 19.8862 9.00394 19.1843 9.53295Z" fill="#5C8EE6"/>
</svg>
