<svg width="20" height="13" viewBox="0 0 20 13" fill="none" xmlns="http://www.w3.org/2000/svg">
<path d="M19.5114 10.9478C18.7096 9.51282 16.6488 7.79117 15.798 7.04188C15.5651 6.83672 15.5394 6.4809 15.7504 6.25292C17.3666 4.50789 18.6578 2.50415 19.101 1.29417C19.2966 0.759658 18.8878 0.196369 18.3138 0.197731L16.6464 0.201685C16.0968 0.202988 15.7756 0.401018 15.623 0.715498C14.2829 3.47821 13.1306 4.67521 12.3236 5.37512C11.8718 5.76717 11.1651 5.44495 11.1636 4.85004C11.1609 3.70376 11.1574 2.22204 11.1549 1.17128C11.1537 0.661673 10.736 0.250355 10.2219 0.251574L7.17577 0.224143C6.79234 0.225052 6.57434 0.659647 6.8052 0.963444L7.30986 1.68423C7.49972 1.93392 7.60263 2.23802 7.60337 2.55036L7.60841 5.80172C7.60976 6.36731 6.92486 6.64528 6.51695 6.24994C5.1369 4.91232 3.9357 2.17696 3.50251 0.868643C3.37721 0.489954 3.02161 0.234882 2.61908 0.234948L0.976512 0.234844C0.360275 0.236306 -0.0888552 0.821622 0.080039 1.40947C1.59336 6.67392 4.68465 11.6783 10.1739 12.2086C10.7147 12.2607 11.1802 11.8241 11.1789 11.2852L11.1749 9.57645C11.1737 9.0864 11.557 8.66429 12.051 8.65068C12.0684 8.6502 12.0857 8.65016 12.103 8.65011C13.5545 8.64667 15.1852 10.7554 15.7563 11.7422C15.9204 12.0262 16.2265 12.1987 16.5571 12.1979L18.7666 12.1927C19.4112 12.1912 19.8232 11.5064 19.5114 10.9478Z" fill="#5C8EE6"/>
</svg>
